<svg xmlns="http://www.w3.org/2000/svg" width="77" height="77" viewBox="0 0 77 77"><g><g><g><path fill="#fff" d="M68.687 56.974c0 6.03-4.903 10.933-10.933 10.933H19.998c-6.022 0-10.925-4.903-10.925-10.933V19.218c0-6.022 4.903-10.925 10.925-10.925h37.756c6.03 0 10.933 4.903 10.933 10.925zM57.754 0H19.998C9.402 0 .78 8.622.78 19.218v37.756C.78 67.578 9.402 76.2 19.998 76.2h37.756c10.604 0 19.226-8.622 19.226-19.226V19.218C76.98 8.622 68.358 0 57.754 0z"/></g><g><path fill="#fff" d="M63.776 17.887a4.647 4.647 0 0 1-4.636 4.644 4.65 4.65 0 0 1-4.652-4.644 4.65 4.65 0 0 1 4.652-4.644 4.647 4.647 0 0 1 4.636 4.644z"/></g><g><path fill="#fff" d="M38.88 49.432c-6.25 0-11.332-5.082-11.332-11.332 0-6.249 5.082-11.332 11.332-11.332 6.249 0 11.332 5.083 11.332 11.332 0 6.25-5.083 11.332-11.332 11.332zm0-30.958c-10.823 0-19.626 8.803-19.626 19.626s8.803 19.626 19.626 19.626S58.506 48.915 58.506 38.1c0-10.823-8.803-19.626-19.626-19.626z"/></g></g></g></svg>