<svg xmlns="http://www.w3.org/2000/svg" width="312" height="106" viewBox="0 0 312 106"><g><g><g><path fill="#fff" d="M58.633 52.754V27.522h-8.855l-6.227 13.174-6.263-13.174h-8.855v25.232h7.307V38.932l5.076 11.375h5.435l5.075-11.375v13.822z"/></g><g><path fill="#fff" d="M79.078 35.837l2.592 7.379h-5.255zm-4.823 13.354h9.467l1.26 3.563h8.89L83.614 27.522h-8.567L64.392 52.754h8.567z"/></g><g><path fill="#fff" d="M86.061 21.295l-6.083-2.16-4.86 6.443 5.112.36z"/></g><g><path fill="#fff" d="M115.83 52.754h10.006l-8.927-13.21 8.171-12.022h-9.827l-3.671 5.94-3.672-5.94h-9.718l8.314 12.418-8.854 12.815h9.754l4.176-6.516z"/></g><g><path fill="#fff" d="M131.775 52.754V27.522h8.35v25.232z"/></g><g><path fill="#fff" d="M170.937 52.754h7.307V27.522h-8.855l-6.227 13.174-6.263-13.174h-8.854v25.232h7.306V38.932l5.075 11.375h5.436l5.075-11.375z"/></g><g><path fill="#fff" d="M203.369 43.324c-.457.96-1.08 1.709-1.872 2.25a4.57 4.57 0 0 1-2.628.809c-.96 0-1.853-.275-2.682-.827-.827-.552-1.488-1.302-1.979-2.25-.492-.948-.738-2.01-.738-3.186 0-1.175.246-2.232.738-3.167.491-.936 1.152-1.674 1.979-2.214a4.82 4.82 0 0 1 2.682-.81c.96 0 1.836.264 2.628.792s1.415 1.266 1.872 2.214c.455.948.683 2.01.683 3.185 0 1.176-.228 2.244-.683 3.204zm2.519-14.65c-2.112-1.128-4.487-1.692-7.127-1.692-2.64 0-5.015.558-7.127 1.674-2.112 1.116-3.761 2.67-4.949 4.661-1.188 1.992-1.782 4.248-1.782 6.767 0 2.52.594 4.787 1.782 6.803 1.188 2.016 2.837 3.594 4.949 4.734 2.112 1.139 4.487 1.71 7.127 1.71 2.64 0 5.015-.571 7.127-1.71 2.112-1.14 3.762-2.718 4.95-4.734 1.187-2.016 1.781-4.283 1.781-6.803 0-2.495-.594-4.739-1.781-6.731-1.188-1.991-2.838-3.551-4.95-4.679z"/></g><g><path fill="#fff" d="M35.975 64.858c.82 0 1.883.234 3.188.699a21.638 21.638 0 0 1 3.552 1.622l2.349-4.95c-1.118-.708-2.438-1.277-3.957-1.706a16.763 16.763 0 0 0-4.573-.643c-1.678 0-3.151.261-4.419.783-1.268.522-2.247 1.272-2.936 2.251-.69.979-1.035 2.121-1.035 3.426 0 1.343.336 2.415 1.007 3.217a6.157 6.157 0 0 0 2.391 1.776c.923.382 2.074.751 3.454 1.105 1.137.279 1.972.545 2.503.797.531.251.797.601.797 1.049 0 .373-.14.647-.419.825-.28.177-.662.265-1.147.265-1.007 0-2.256-.303-3.748-.909-1.492-.606-2.731-1.337-3.719-2.195l-2.406 4.894c1.287.989 2.811 1.767 4.573 2.335 1.762.569 3.51.854 5.244.854 1.529 0 2.918-.234 4.167-.7 1.249-.466 2.242-1.179 2.979-2.139.736-.96 1.105-2.149 1.105-3.566 0-1.38-.346-2.494-1.035-3.342-.69-.849-1.497-1.469-2.419-1.86-.923-.392-2.084-.784-3.482-1.175-1.119-.298-1.935-.569-2.448-.811-.513-.242-.769-.587-.769-1.035 0-.578.401-.867 1.203-.867z"/></g><g><path fill="#fff" d="M61.258 72.577l2.069-5.733 2.014 5.733zm-1.063-12.194l-8.279 19.606h6.657l1.007-2.769h7.355l.979 2.769h6.908l-7.971-19.606z"/></g><g><path fill="#fff" d="M96.106 70.452l-7.747-10.069h-5.426v19.606h5.901V69.976l7.72 10.013h5.425V60.383h-5.873z"/></g><g><path fill="#fff" d="M119.417 65.963a3.774 3.774 0 0 1 2.084-.601c.764 0 1.552.247 2.363.741a7.141 7.141 0 0 1 2.084 1.943l3.747-4.446c-1.007-1.101-2.265-1.981-3.775-2.643-1.511-.662-3.012-.994-4.503-.994-2.033 0-3.855.439-5.468 1.315-1.613.877-2.876 2.084-3.79 3.622-.914 1.538-1.37 3.277-1.37 5.216 0 1.958.447 3.725 1.342 5.3a9.59 9.59 0 0 0 3.706 3.692c1.575.885 3.351 1.328 5.328 1.328 1.51 0 3.035-.359 4.573-1.076a12.313 12.313 0 0 0 3.957-2.895l-3.747-4a7.788 7.788 0 0 1-2.168 1.664c-.811.42-1.571.63-2.279.63-.765 0-1.46-.205-2.084-.616-.625-.409-1.109-.974-1.454-1.691-.346-.718-.518-1.525-.518-2.42s.172-1.696.518-2.405a4.013 4.013 0 0 1 1.454-1.664z"/></g><g><path fill="#fff" d="M150.559 67.99h-6.069v-7.607h-6.489v19.606h6.489v-7.076h6.069v7.076h6.489V60.383h-6.489z"/></g><g><path fill="#fff" d="M173.325 72.633h9.173v-4.922h-9.173v-2.406h10.096v-4.922h-16.585v19.606h16.837v-4.923h-10.348z"/></g><g><path fill="#fff" d="M210.075 64.439v-4.056h-17.453v4.979h8.81l-9.145 10.572v4.055h17.983V75.01h-9.341z"/></g><g><path fill="#e3b419" d="M285.283 97.575h-12.548l18.21-45.064-18.204-44.918h12.544l18.205 44.922zm-33.284 0l18.209-45.064-18.203-44.918h12.544l18.205 44.922-18.208 45.06zm-20.737 0l18.209-45.064-18.203-44.918h12.544l18.205 44.922-18.208 45.06zm-18.411 0H7.861V7.593h215.215l18.204 44.922-18.207 45.06zM290.401 0H.268v105.168h290.136l21.277-52.657z"/></g></g></g></svg>