<svg xmlns="http://www.w3.org/2000/svg" width="165" height="87" viewBox="0 0 165 87"><g><g><g><path fill="#fff" d="M82.76 71.446V15.15H63.004L49.11 44.543 35.137 15.15H15.38v56.296h16.302V40.608l11.324 25.377h12.127l11.323-25.377v30.838z"/></g><g><path fill="#e3b419" d="M143.402 79.979h-10.266l14.898-36.87-14.893-36.75h10.263l14.895 36.754zm-27.231 0l14.897-36.87-14.892-36.75h10.263l14.894 36.754-14.897 36.866zm-16.966 0l14.898-36.87L99.21 6.36h10.263l14.894 36.754-14.897 36.866zm-92.725 0V6.359h86.027l14.894 36.754-14.896 36.866zM147.59.148H.268v86.044h147.324L165 43.11z"/></g></g></g></svg>