<svg xmlns="http://www.w3.org/2000/svg" width="1771" height="935" viewBox="0 0 1771 935"><g><g><path fill="#fff" d="M191.76 787.446V731.15h-19.756l-13.894 29.393-13.973-29.393H124.38v56.296h16.302v-30.838l11.324 25.377h12.127l11.323-25.377v30.838z"/></g><g><path fill="#e3b419" d="M252.402 795.979h-10.266l14.898-36.869-14.893-36.75h10.263l14.895 36.753zm-27.231 0l14.897-36.869-14.892-36.75h10.263l14.894 36.753-14.897 36.866zm-16.966 0l14.898-36.869-14.893-36.75h10.263l14.894 36.753-14.897 36.866zm-92.725 0V722.36h86.027l14.894 36.753-14.896 36.866zm141.11-79.831H109.268v86.044h147.324L274 759.11z"/></g><g><path fill="#e3b419" d="M1519.305 893.694h-66.873l208.05-426.923-208.017-426.146h66.855l208.025 426.167zm-177.393 0l208.049-426.923-208.016-426.146h66.856l208.025 426.167-208.04 426.902zm-110.519 0l208.05-426.923-208.017-426.146h66.855l208.025 426.167-208.04 426.902zm-1190.657 0V40.625h1147.026l208.026 426.167-208.04 426.902zM1546.584.157H.268v934.006H1546.6L1771 466.771z"/></g></g></svg>