<svg xmlns="http://www.w3.org/2000/svg" width="166" height="166" viewBox="0 0 166 166"><g><g><path fill="#e3b419" d="M146.634 116.202h-27.666a13.857 13.857 0 0 1-13.557-11.067h54.779a13.856 13.856 0 0 1-13.556 11.067zm-14.547-72.037c.457.161.958.14 1.4-.058l25.436 55.495h-52.244zM92.923 149.401H73.081l5.533-5.533h8.776zm17.745 5.533a8.317 8.317 0 0 1 7.827 5.533H47.509a8.317 8.317 0 0 1 7.827-5.533zM85.769 38.737v99.597h-5.534V38.737zm-5.534-5.533V27.67h5.534v5.534zm-1.862-25.41a6.054 6.054 0 0 1 9.257 0 5.838 5.838 0 0 1 1.071 5.042l-2.327 9.301h-6.745l-2.326-9.301a5.844 5.844 0 0 1 1.07-5.041zM59.325 99.603H7.081l25.414-55.445c.464.124.952.124 1.416 0zm-39.955 16.6a13.857 13.857 0 0 1-13.556-11.067h54.779a13.857 13.857 0 0 1-13.557 11.067zm146.353-14.979l.025-.008-27.254-59.465 6.61-3.29-2.473-4.952-6.444 3.209-.871-1.9a2.767 2.767 0 0 0-5.03 0l-.777 1.698a35.58 35.58 0 0 0-14.968-3.31H91.302V27.67h5.533v-5.533h-4.756l1.989-7.959c1.528-6.112-2.189-12.305-8.3-13.832-6.112-1.527-12.305 2.19-13.832 8.301a11.396 11.396 0 0 0 0 5.53l1.989 7.96h-4.756v5.533h5.533v5.533H51.477a35.585 35.585 0 0 0-14.982 3.32l-.777-1.698a2.767 2.767 0 0 0-5.03 0l-.871 1.9-6.444-3.223L20.9 38.46l6.609 3.303L.256 101.215a2.705 2.705 0 0 0-.252 1.154c.012 10.69 8.676 19.354 19.366 19.366h27.666c10.691-.012 19.354-8.676 19.366-19.366a2.71 2.71 0 0 0-.276-1.146L38.797 41.534c3.973-1.844 8.3-2.8 12.68-2.797h23.225v101.22l-9.445 9.444h-9.921c-7.636.01-13.824 6.197-13.833 13.833A2.766 2.766 0 0 0 44.27 166h77.464a2.766 2.766 0 0 0 2.767-2.766c-.009-7.636-6.197-13.824-13.833-13.833h-9.921l-9.445-9.445V38.736h23.239c4.38-.001 8.707.954 12.68 2.798l-27.368 59.68a2.704 2.704 0 0 0-.251 1.155c.012 10.69 8.675 19.354 19.366 19.366h27.666c10.69-.012 19.354-8.676 19.366-19.366a2.698 2.698 0 0 0-.277-1.146z"/></g></g></svg>