<svg xmlns="http://www.w3.org/2000/svg" width="124" height="156" viewBox="0 0 124 156"><g><g><g><g><g><path fill="#e3b419" d="M5.171 70.168c0-1.38.538-2.678 1.515-3.655a5.139 5.139 0 0 1 3.655-1.512c1.383 0 2.68.537 3.655 1.512l1.491 1.49L35.182 87.7a5.176 5.176 0 0 1-.008 7.302c-1.952 1.952-5.359 1.954-7.313 0L6.686 73.826a5.14 5.14 0 0 1-1.515-3.658zm8.825-18.278a5.144 5.144 0 0 1 3.657-1.512c1.378 0 2.676.535 3.65 1.507l14.222 14.222 22.338 22.341a5.122 5.122 0 0 1 1.515 3.655c0 1.38-.538 2.678-1.515 3.655-1.951 1.952-5.358 1.952-7.309 0L38.834 84.04l-.005-.008-10.588-10.588-14.243-14.243a5.178 5.178 0 0 1-.002-7.312zm7.31-14.62a5.14 5.14 0 0 1 3.657-1.515c1.381 0 2.678.538 3.655 1.515l29.245 29.243a5.13 5.13 0 0 1 1.515 3.655 5.14 5.14 0 0 1-1.515 3.658c-1.951 1.95-5.358 1.95-7.309 0L39.18 62.452 24.963 48.235l-.005-.005-3.652-3.65a5.177 5.177 0 0 1 0-7.31zm7.312-14.625a5.147 5.147 0 0 1 3.655-1.512c1.383 0 2.681.538 3.658 1.512l1.016 1.016 19.089 19.092a5.13 5.13 0 0 1 1.515 3.655c0 1.38-.538 2.678-1.515 3.655-1.954 1.951-5.358 1.951-7.31 0L28.619 29.958a5.182 5.182 0 0 1-.001-7.313zm2.898 79.04c2.763 0 5.361-1.075 7.313-3.03 1.339-1.336 2.189-2.961 2.639-4.67l5.431 5.428a10.264 10.264 0 0 0 7.31 3.029c2.763 0 5.358-1.075 7.31-3.029a10.266 10.266 0 0 0 3.029-7.31c0-2.763-1.075-5.358-3.029-7.313l-4.666-4.665c1.742-.46 3.355-1.334 4.666-2.645a10.27 10.27 0 0 0 3.029-7.312c0-2.76-1.075-5.359-3.029-7.31l-6.496-6.496c1.745-.46 3.358-1.334 4.668-2.645a10.258 10.258 0 0 0 3.03-7.309c0-2.764-1.076-5.36-3.03-7.31L41.359 20.763V3.04a2.585 2.585 0 0 0-5.169 0V16.79c-3.746-1.458-8.3-.724-11.226 2.2-3.208 3.213-3.818 8.008-1.915 11.87-2.006.354-3.914 1.269-5.398 2.755-3.184 3.187-3.81 7.935-1.959 11.784a10.275 10.275 0 0 0-5.351 2.836c-3.184 3.187-3.812 7.938-1.959 11.787a10.257 10.257 0 0 0-5.351 2.836 10.264 10.264 0 0 0-3.029 7.31 10.27 10.27 0 0 0 3.029 7.312l21.176 21.175a10.26 10.26 0 0 0 7.309 3.03z"/></g><g><path fill="#e3b419" d="M113.661 65.076a2.584 2.584 0 1 0 5.169 0c0-18.684-7.798-29.695-12.459-36.274-1.36-1.92-3.05-4.309-3.05-5.084V3.039a2.586 2.586 0 0 0-5.169 0v20.679c0 2.42 1.677 4.792 4.004 8.072 4.58 6.47 11.505 16.246 11.505 33.286z"/></g><g><path fill="#e3b419" d="M38.774 145.207a2.586 2.586 0 0 0-2.584 2.584v5.17a2.585 2.585 0 0 0 5.169 0v-5.17a2.586 2.586 0 0 0-2.585-2.584z"/></g><g><path fill="#e3b419" d="M107.338 68.095c-6.08-4.053-25.174-15.127-26.125-15.672-1.727-.861-3.645-.742-5.398.343-3.779 2.335-6.097 8.742-6.097 12.31 0 4.965 3.484 7.984 7.175 11.179 1.28 1.106 2.601 2.254 3.922 3.572l12.924 12.925c.856.858 1.665 1.667 1.776 1.91.046.145.052.695.052 1.236-.61 1.633-5.385 7.092-9.495 11.208l-28.513 25.926c-.752.739-2.34 1.835-3.35 1.835H30.945a5.175 5.175 0 0 1-5.17-5.17c0-2.85 2.319-5.17 5.17-5.17h18.094c3.552 0 6.654-3.001 6.997-3.342l18.094-18.094a2.587 2.587 0 0 0 0-3.655 2.581 2.581 0 0 0-3.655 0l-18.086 18.086c-.752.74-2.339 1.836-3.35 1.836H23.19a5.175 5.175 0 0 1-5.169-5.17 5.175 5.175 0 0 1 5.169-5.17h20.679a2.585 2.585 0 0 0 0-5.169H15.436a5.176 5.176 0 0 1-5.17-5.17c0-1.277.468-2.5 1.316-3.446a2.587 2.587 0 0 0-.2-3.652 2.583 2.583 0 0 0-3.649.201 10.314 10.314 0 0 0-2.637 6.897c0 5.33 4.066 9.678 9.251 10.231-.93 1.55-1.496 3.342-1.496 5.278 0 5.33 4.066 9.678 9.251 10.23-.931 1.552-1.497 3.343-1.497 5.279 0 5.703 4.638 10.34 10.34 10.34h23.264c3.551 0 6.653-3 6.909-3.257l28.522-25.934c11.096-11.097 11.096-13.848 11.096-14.752 0-3.43-.421-4.077-3.342-6.998L84.47 76.172c-1.45-1.453-2.908-2.711-4.193-3.826-3.541-3.068-5.389-4.784-5.389-7.27 0-3.263 2.781-8.032 3.872-8.104.196.113 19.764 11.458 25.711 15.423 6.685 4.457 14.359 11.472 14.359 26.283 0 11.095-8.723 26.136-14.496 36.088-4.125 7.11-6.107 10.634-6.107 13.025v5.17a2.585 2.585 0 0 0 5.169 0v-5.142c.106-1.313 2.923-6.172 5.41-10.458C115.217 126.305 124 111.166 124 98.678c0-17.457-9.51-25.814-16.662-30.583z"/></g></g></g></g></g></svg>