<svg xmlns="http://www.w3.org/2000/svg" width="144" height="144" viewBox="0 0 144 144"><g><g><path fill="#e3b419" d="M132.512 65.265c0 13.146-10.696 23.841-23.842 23.841H93.205c-.513 0-1.016.141-1.455.405L70.808 102.17V83.307l12.956-2.712a2.813 2.813 0 0 0 1.982-1.584l2.345-5.13a2.812 2.812 0 0 0-2.321-3.97c-11.485-2.97-15.746-9.802-17.326-14.574l2.247 1.169c.465.258.95.511 1.456.757a2.812 2.812 0 0 0 2.529-5.024l-1.33-.692c-4.367-2.44-6.892-5.671-7.51-9.625a12.455 12.455 0 0 1-.144-2.235l2.298 1.64c.389.296.798.588 1.227.873a2.813 2.813 0 0 0 3.19-4.632l-1.029-.734c-4.862-3.752-5.471-8.758-5.116-12.325l36.88 37.018a5.38 5.38 0 0 0 6.65.789c5.429-3.338 8.801-9.37 8.801-15.74a6.967 6.967 0 0 1 6.96-6.96c3.836 0 6.959 3.12 6.959 6.96zm-48.541-42.36c-.183.444-.358.904-.52 1.393-.735 2.213-1.273 5.09-1.004 8.487L66.991 17.272a46.917 46.917 0 0 1 16.98 5.633zm9.27 5.834a2.812 2.812 0 0 0 1.829-3.501l-.344-1.124c-1.334-4.877.003-8.004 1.602-9.885l.185 1.168c.051.413.118.836.203 1.27a2.812 2.812 0 0 0 5.539-.974l-.17-1.07c-.356-2.995.473-5.293 2.519-7.008.211-.178.427-.341.644-.491l-.02 48.528-14.14-14.195c-4.098-7.14-3.402-12.763-1.947-16.373l.177.58c.117.422.25.854.397 1.294a2.812 2.812 0 0 0 3.526 1.78zm49.935 22.146l-5.064-5.065c-.392-6.589-5.874-11.83-12.559-11.83-6.939 0-12.585 5.646-12.585 12.585a12.87 12.87 0 0 1-2.114 7.031l.021-50.792a2.813 2.813 0 0 0-3.388-2.753c-.343.07-3.426.766-6.284 3.068a13.237 13.237 0 0 0-2.947 3.3 2.818 2.818 0 0 0-.947.21c-.333.138-3.32 1.436-5.738 4.573a14.375 14.375 0 0 0-2.383 4.622 2.81 2.81 0 0 0-1.055.63c-.127.121-.667.653-1.367 1.559a52.674 52.674 0 0 0-25.857-6.773c-25.174 0-46.936 17.936-51.745 42.646L.052 100.713a2.812 2.812 0 0 0 2.761 3.35h12.844v11.163c0 11.214 9.123 20.337 20.337 20.337H54v5.625a2.812 2.812 0 0 0 5.625 0v-8.438a2.812 2.812 0 0 0-2.812-2.812H35.994c-8.113 0-14.712-6.6-14.712-14.712V101.25a2.813 2.813 0 0 0-2.813-2.812H6.225l8.461-43.468c4.295-22.073 23.736-38.095 46.223-38.095.628 0 1.254.017 1.879.042a2.803 2.803 0 0 0-.67.953c-.066.157-1.622 3.892-1.551 8.685.027 1.886.309 4.088 1.128 6.354a2.844 2.844 0 0 0-.563.874c-.159.397-1.546 4.008-.9 8.692.254 1.85.856 4.007 2.119 6.204-.287.436-.451.95-.461 1.49-.003.205-.058 5.08 2.778 10.612 2.352 4.59 7.171 10.493 16.937 13.76l-.384.839-13.801 2.89a2.815 2.815 0 0 0-2.237 2.753v26.133a2.81 2.81 0 0 0 2.813 2.813c.504 0 1.008-.135 1.455-.405L93.99 94.731h14.682c16.248 0 29.467-13.218 29.467-29.465v-9.58h3.049a2.815 2.815 0 0 0 2.6-1.736 2.816 2.816 0 0 0-.611-3.065z"/></g></g></svg>