<svg xmlns="http://www.w3.org/2000/svg" width="66" height="54" viewBox="0 0 66 54"><g><g><g><path fill="#e3b419" d="M65.733 6.316a26.75 26.75 0 0 1-7.702 2.109 13.443 13.443 0 0 0 5.897-7.417 26.843 26.843 0 0 1-8.515 3.253 13.394 13.394 0 0 0-9.79-4.233c-7.404 0-13.409 6.005-13.409 13.409 0 1.05.119 2.074.349 3.056-11.144-.559-21.025-5.897-27.64-14.012a13.353 13.353 0 0 0-1.815 6.742c0 4.651 2.369 8.757 5.965 11.16A13.314 13.314 0 0 1 3 18.706l-.001.17c0 6.497 4.624 11.916 10.757 13.147a13.358 13.358 0 0 1-3.532.471c-.866 0-1.705-.083-2.523-.24 1.706 5.327 6.657 9.204 12.526 9.313a26.904 26.904 0 0 1-16.655 5.74 27 27 0 0 1-3.197-.188 37.932 37.932 0 0 0 20.553 6.025c24.664 0 38.152-20.432 38.152-38.153 0-.58-.013-1.16-.039-1.734a27.188 27.188 0 0 0 6.692-6.94z"/></g></g></g></svg>