<svg width="315" height="158" viewBox="0 0 315 158" fill="none" xmlns="http://www.w3.org/2000/svg">
<path d="M217 3H6L64.5 69C61.5 74.5 45.6 99.5 6 155.5H240.5L310.5 69L217 3Z" fill="#E3B419" stroke="#E3B419" stroke-width="5"/>
<path d="M114.984 65.875V89.0781C114.969 92.2969 113.953 94.9297 111.938 96.9766C109.938 99.0234 107.219 100.172 103.781 100.422L102.586 100.469C98.8516 100.469 95.875 99.4609 93.6562 97.4453C91.4375 95.4297 90.3125 92.6562 90.2812 89.125V65.875H94.7344V88.9844C94.7344 91.4531 95.4141 93.375 96.7734 94.75C98.1328 96.1094 100.07 96.7891 102.586 96.7891C105.133 96.7891 107.078 96.1094 108.422 94.75C109.781 93.3906 110.461 91.4766 110.461 89.0078V65.875H114.984ZM104.766 56.7344H110.016L103.734 63.625H100.242L104.766 56.7344ZM148.312 100H143.789L126.609 73.7031V100H122.086V65.875H126.609L143.836 92.2891V65.875H148.312V100ZM175.594 84.2266H160.805V96.3203H177.984V100H156.305V65.875H177.75V69.5781H160.805V80.5469H175.594V84.2266ZM207.633 69.5781H196.664V100H192.188V69.5781H181.242V65.875H207.633V69.5781ZM231.984 84.2266H217.195V96.3203H234.375V100H212.695V65.875H234.141V69.5781H217.195V80.5469H231.984V84.2266Z" fill="white"/>
</svg>